HIERARCHY
ROOT Hips
{
    OFFSET 0.000000 0.000000 0.000000
    CHANNELS 6 Xposition Yposition Zposition Zrotation Xrotation Yrotation
    JOINT Spine
    {
        OFFSET -0.000000 7.236184 0.000000
        CHANNELS 3 Zrotation Xrotation Yrotation
        JOINT Spine1
        {
            OFFSET -0.000000 20.420147 0.000000
            CHANNELS 3 Zrotation Xrotation Yrotation
            JOINT Neck
            {
                OFFSET -0.000000 20.336288 1.848754
                CHANNELS 3 Zrotation Xrotation Yrotation
                JOINT Head
                {
                    OFFSET -0.000000 12.354461 -1.764923
                    CHANNELS 3 Zrotation Xrotation Yrotation
                    End Site
                    {
                        OFFSET -0.000000 22.061537 0.000000
                    }
                }
            }
            JOINT LeftShoulder
            {
                OFFSET 3.573296 18.396038 -0.314103
                CHANNELS 3 Zrotation Xrotation Yrotation
                JOINT LeftArm
                {
                    OFFSET 10.880760 0.000000 0.000000
                    CHANNELS 3 Zrotation Xrotation Yrotation
                    JOINT LeftForeArm
                    {
                        OFFSET 27.185530 0.000000 0.000000
                        CHANNELS 3 Zrotation Xrotation Yrotation
                        JOINT LeftHand
                        {
                            OFFSET 27.825975 0.000000 0.000000
                            CHANNELS 3 Zrotation Xrotation Yrotation
                            End Site
                            {
                                OFFSET 13.236923 0.000000 0.000000
                            }
                        }
                    }
                }
            }
            JOINT RightShoulder
            {
                OFFSET -3.474926 18.396038 -0.314103
                CHANNELS 3 Zrotation Xrotation Yrotation
                JOINT RightArm
                {
                    OFFSET -10.880760 0.000000 0.000000
                    CHANNELS 3 Zrotation Xrotation Yrotation
                    JOINT RightForeArm
                    {
                        OFFSET -27.185530 0.000000 0.000000
                        CHANNELS 3 Zrotation Xrotation Yrotation
                        JOINT RightHand
                        {
                            OFFSET -27.825975 0.000000 0.000000
                            CHANNELS 3 Zrotation Xrotation Yrotation
                            End Site
                            {
                                OFFSET -13.236923 0.000000 0.000000
                            }
                        }
                    }
                }
            }
        }
    }
    JOINT LeftUpLeg
    {
        OFFSET 8.824615 0.000000 0.000000
        CHANNELS 3 Zrotation Xrotation Yrotation
        JOINT LeftLeg
        {
            OFFSET -0.000000 -35.111282 0.000000
            CHANNELS 3 Zrotation Xrotation Yrotation
            JOINT LeftFoot
            {
                OFFSET -0.000000 -42.324711 0.000000
                CHANNELS 3 Zrotation Xrotation Yrotation
                JOINT LeftToeBase
                {
                    OFFSET -0.000000 -5.735999 13.236923
                    CHANNELS 3 Zrotation Xrotation Yrotation
                    End Site
                    {
                        OFFSET -0.000000 0.000000 3.529846
                    }
                }
            }
        }
    }
    JOINT RightUpLeg
    {
        OFFSET -8.824615 0.000000 0.000000
        CHANNELS 3 Zrotation Xrotation Yrotation
        JOINT RightLeg
        {
            OFFSET -0.000000 -35.111282 0.000000
            CHANNELS 3 Zrotation Xrotation Yrotation
            JOINT RightFoot
            {
                OFFSET -0.000000 -42.324711 0.000000
                CHANNELS 3 Zrotation Xrotation Yrotation
                JOINT RightToeBase
                {
                    OFFSET -0.000000 -5.735999 13.236923
                    CHANNELS 3 Zrotation Xrotation Yrotation
                    End Site
                    {
                        OFFSET -0.000000 0.000000 3.529846
                    }
                }
            }
        }
    }
}
MOTION
Frames:    4
Frame Time:    0.008333
-1.398158    81.029564    96.479980    -0.142741    -4.957976    -175.078003    -1.159105    -14.437098    0.685837    -0.153770    7.897232    0.843244    1.927585    6.049680    -3.074047    5.829970    -15.400337    -1.788581    0.524775    17.857630    -3.137444    -42.499432    47.746666    -40.880623    -2.669855    -5.237521    -17.628952    18.057383    -5.087162    3.555009    6.432899    19.805159    -3.064014    36.839539    46.937885    42.828552    0.878461    -5.948965    17.127367    -14.997628    -5.485594    -4.540384    3.746118    -4.345146    0.526656    -2.876009    7.872248    -1.098948    -0.516405    -7.620324    -7.818308    0.102299    0.302689    -0.113333    -3.577527    -1.586542    2.156044    3.342902    5.375568    5.078701    -2.282362    -7.501460    -13.691652    -0.309214    0.409750    0.334251    
-1.403522    81.028557    96.478615    -0.145909    -4.961751    -175.087280    -1.154420    -14.437130    0.682484    -0.169827    7.884305    0.840454    1.933739    6.025816    -3.069294    5.830819    -15.407775    -1.784020    0.542182    17.885107    -3.119628    -42.477646    47.741695    -40.924400    -2.670680    -5.237039    -17.622808    18.057308    -5.087238    3.551303    6.441505    19.808348    -3.061134    36.840168    46.933514    42.825375    0.883835    -5.946759    17.128128    -14.997232    -5.484551    -4.537682    3.738458    -4.343047    0.524871    -2.874646    7.868346    -1.093005    -0.514677    -7.622866    -7.814892    0.101294    0.303541    -0.112220    -3.585500    -1.591161    2.153072    3.343281    5.377730    5.085602    -2.259902    -7.506704    -13.684977    -0.307844    0.406387    0.332772    
-1.408748    81.027580    96.477257    -0.148888    -4.965554    -175.096481    -1.150458    -14.437738    0.679311    -0.183786    7.872658    0.837757    1.938322    6.001297    -3.064911    5.832263    -15.414620    -1.779610    0.557715    17.910522    -3.103311    -42.457058    47.737072    -40.965248    -2.671516    -5.236605    -17.616928    18.057131    -5.087404    3.547487    6.449308    19.810913    -3.059122    36.840992    46.928955    42.822281    0.889234    -5.944357    17.128672    -14.996992    -5.483314    -4.535074    3.731068    -4.341118    0.523623    -2.873149    7.864656    -1.087169    -0.513066    -7.625449    -7.811959    0.100266    0.304550    -0.111080    -3.593104    -1.595789    2.150208    3.343527    5.379867    5.092106    -2.276990    -7.506791    -13.683755    -0.309229    0.412366    0.334267    
-1.413801    81.026634    96.475876    -0.151708    -4.969208    -175.105576    -1.147748    -14.439079    0.676374    -0.194441    7.863080    0.835143    1.940476    5.975586    -3.061072    5.834497    -15.420572    -1.775352    0.570324    17.932533    -3.089460    -42.438828    47.732952    -41.001083    -2.672312    -5.236180    -17.611326    18.056814    -5.087624    3.543408    6.455460    19.812408    -3.058082    36.842503    46.924267    42.819202    0.894539    -5.941893    17.128889    -14.996796    -5.481984    -4.532607    3.724055    -4.339186    0.522912    -2.871799    7.861148    -1.081684    -0.511321    -7.628046    -7.809221    0.099233    0.305283    -0.109936    -3.600352    -1.600126    2.147543    3.343788    5.381648    5.098112    -2.274367    -7.509262    -13.679380    -0.309355    0.413971    0.334403    
